# Blender v3.0.1 OBJ File: ''
# www.blender.org
mtllib map.mtl
o Plane
v -242.070557 239.634644 90.061493
v -242.070557 -236.915314 90.061493
v 241.587769 239.634644 90.061493
v 241.587769 -236.915314 90.061493
v 198.086838 239.634644 90.061493
v 151.703491 239.634644 90.061493
v 109.157913 239.634644 90.061493
v 65.710976 239.634644 90.061493
v 20.027813 239.634644 90.061493
v -21.468704 239.634644 90.061493
v -66.656418 239.634644 90.061493
v -110.081482 239.634644 90.061493
v -150.261948 239.634644 90.061493
v -195.468781 239.634644 90.061493
v -242.070557 194.180725 90.061493
v -242.070557 150.992737 90.061493
v -242.070557 105.193802 90.061493
v -242.070557 61.446613 90.061493
v -242.070557 22.021366 90.061493
v -242.070557 -17.170288 90.061493
v -242.070557 -67.730362 90.061493
v -242.070557 -106.965927 90.061493
v -242.070557 -150.443634 90.061493
v -242.070557 -194.671051 90.061493
v -195.468781 -236.915314 90.061493
v -150.261948 -236.915314 90.061493
v -110.081482 -236.915314 90.061493
v -66.656418 -236.915314 90.061493
v -21.468704 -236.915314 90.061493
v 20.027813 -236.915314 90.061493
v 65.710976 -236.915314 90.061493
v 109.157913 -236.915314 90.061493
v 151.703491 -236.915314 90.061493
v 198.086838 -236.915314 90.061493
v 241.587769 -194.671051 90.061493
v 241.587769 -150.443634 90.061493
v 241.587769 -106.965927 90.061493
v 241.587769 -67.730362 90.061493
v 241.587769 -17.170288 90.061493
v 241.587769 22.021366 90.061493
v 241.587769 61.446613 90.061493
v 241.587769 105.193802 90.061493
v 241.587769 150.992737 90.061493
v 241.587769 194.180725 90.061493
v -195.468781 194.180725 -22.223881
v -150.261948 194.180725 -46.787640
v -110.081482 194.180725 -20.044392
v -66.656418 194.180725 -20.942055
v -21.468704 194.180725 -13.573374
v 20.027813 194.180725 -5.941180
v 65.710976 194.180725 -11.904753
v 109.157913 194.180725 -0.822281
v 151.703491 194.180725 -9.519308
v 198.086838 194.180725 -46.292385
v -195.468781 150.992737 -75.014351
v -150.261948 150.992737 -69.089577
v -110.081482 150.992737 -52.537064
v -66.656418 150.992737 -36.146103
v -21.468704 150.992737 -64.609207
v 20.027813 150.992737 -69.181259
v 65.710976 150.992737 -90.290039
v 109.157913 150.992737 -68.648438
v 151.703491 150.992737 -66.122299
v 198.086838 150.992737 -61.180058
v -195.468781 105.193802 -38.621880
v -150.261948 105.193802 -46.506496
v -110.081482 105.193802 -14.112885
v -66.656418 105.193802 -20.444508
v -21.468704 105.193802 -57.727249
v 20.027813 105.193802 -26.605633
v 65.710976 105.193802 -43.608383
v 109.157913 105.193802 -78.916786
v 151.703491 105.193802 -40.703880
v 198.086838 105.193802 -75.751411
v -195.468781 61.446613 -1.892829
v -150.261948 61.446613 -31.463383
v -110.081482 61.446613 3.655005
v -66.656418 61.446613 -53.213417
v -21.468704 61.446613 -69.558548
v 20.027813 61.446613 -7.652365
v 65.710976 61.446613 -54.460526
v 109.157913 61.446613 -29.593855
v 151.703491 61.446613 -55.440926
v 198.086838 61.446613 -44.527058
v -195.468781 22.021366 -21.744249
v -150.261948 22.021366 -31.433083
v -110.081482 22.021366 -31.795357
v -66.656418 22.021366 -21.399609
v -21.468704 22.021366 -32.917107
v 20.027813 22.021366 -41.400150
v 65.710976 22.021366 -49.366684
v 109.157913 22.021366 -30.511669
v 151.703491 22.021366 -19.604752
v 198.086838 22.021366 -54.217003
v -195.468781 -17.170288 -76.407379
v -150.261948 -17.170288 -59.361317
v -110.081482 -17.170288 -39.990826
v -66.656418 -17.170288 -15.744684
v -21.468704 -17.170288 -63.908466
v 20.027813 -17.170288 -42.897751
v 65.710976 -17.170288 26.465065
v 109.157913 -17.170288 -6.805320
v 151.703491 -17.170288 -36.162403
v 198.086838 -17.170288 19.795040
v -195.468781 -67.730362 -45.470665
v -150.261948 -67.730362 -51.679390
v -110.081482 -67.730362 -35.152260
v -66.656418 -67.730362 -66.178192
v -21.468704 -67.730362 -11.163184
v 20.027813 -67.730362 -43.917252
v 65.710976 -67.730362 -20.032520
v 109.157913 -67.730362 -36.679962
v 151.703491 -67.730362 -37.664532
v 198.086838 -67.730362 -47.369862
v -195.468781 -106.965927 -31.814651
v -150.261948 -106.965927 -44.958416
v -110.081482 -106.965927 -46.545826
v -66.656418 -106.965927 -39.894920
v -21.468704 -106.965927 -27.104572
v 20.027813 -106.965927 -47.017117
v 65.710976 -106.965927 8.541060
v 109.157913 -106.965927 -59.507092
v 151.703491 -106.965927 -31.719296
v 198.086838 -106.965927 21.099876
v -195.468781 -150.443634 -62.496712
v -150.261948 -150.443634 -11.846321
v -110.081482 -150.443634 -64.061142
v -66.656418 -150.443634 -10.357940
v -21.468704 -150.443634 -29.110638
v 20.027813 -150.443634 -42.860321
v 65.710976 -150.443634 -38.099060
v 109.157913 -150.443634 -29.272976
v 151.703491 -150.443634 -58.641586
v 198.086838 -150.443634 -55.714657
v -195.468781 -194.671051 -39.050758
v -150.261948 -194.671051 -1.443677
v -110.081482 -194.671051 -1.822105
v -66.656418 -194.671051 -51.948120
v -21.468704 -194.671051 -50.056606
v 20.027813 -194.671051 -50.910858
v 65.710976 -194.671051 -27.328129
v 109.157913 -194.671051 -17.717197
v 151.703491 -194.671051 -39.583828
v 198.086838 -194.671051 -19.700821
vt 1.000000 0.909091
vt 0.909091 1.000000
vt 0.909091 0.909091
vt 0.000000 0.909091
vt 0.090909 1.000000
vt 0.000000 1.000000
vt 0.090909 0.909091
vt 0.181818 1.000000
vt 0.181818 0.909091
vt 0.272727 1.000000
vt 0.363636 0.909091
vt 0.272727 0.909091
vt 0.454545 1.000000
vt 0.363636 1.000000
vt 0.545455 0.909091
vt 0.454545 0.909091
vt 0.636364 1.000000
vt 0.545455 1.000000
vt 0.727273 0.909091
vt 0.636364 0.909091
vt 0.818182 1.000000
vt 0.727273 1.000000
vt 0.818182 0.909091
vt 0.090909 0.000000
vt 0.000000 0.090909
vt 0.000000 0.000000
vt 0.090909 0.090909
vt 0.000000 0.181818
vt 0.090909 0.272727
vt 0.000000 0.272727
vt 0.000000 0.363636
vt 0.090909 0.454545
vt 0.000000 0.454545
vt 0.090909 0.545455
vt 0.000000 0.545455
vt 0.000000 0.636364
vt 0.090909 0.727273
vt 0.000000 0.727273
vt 0.000000 0.818182
vt 0.090909 0.818182
vt 0.181818 0.000000
vt 0.181818 0.090909
vt 0.090909 0.181818
vt 0.181818 0.272727
vt 0.181818 0.363636
vt 0.090909 0.363636
vt 0.181818 0.545455
vt 0.090909 0.636364
vt 0.181818 0.727273
vt 0.181818 0.818182
vt 0.272727 0.090909
vt 0.272727 0.181818
vt 0.181818 0.181818
vt 0.272727 0.272727
vt 0.272727 0.454545
vt 0.181818 0.454545
vt 0.272727 0.636364
vt 0.181818 0.636364
vt 0.272727 0.727273
vt 0.272727 0.000000
vt 0.363636 0.090909
vt 0.363636 0.181818
vt 0.363636 0.272727
vt 0.272727 0.363636
vt 0.363636 0.363636
vt 0.363636 0.454545
vt 0.272727 0.545455
vt 0.363636 0.636364
vt 0.363636 0.727273
vt 0.272727 0.818182
vt 0.454545 0.000000
vt 0.363636 0.000000
vt 0.454545 0.090909
vt 0.454545 0.272727
vt 0.454545 0.363636
vt 0.454545 0.454545
vt 0.454545 0.545455
vt 0.363636 0.545455
vt 0.454545 0.636364
vt 0.454545 0.818182
vt 0.363636 0.818182
vt 0.545455 0.000000
vt 0.545455 0.181818
vt 0.454545 0.181818
vt 0.545455 0.272727
vt 0.545455 0.363636
vt 0.545455 0.545455
vt 0.545455 0.727273
vt 0.454545 0.727273
vt 0.545455 0.818182
vt 0.636364 0.090909
vt 0.545455 0.090909
vt 0.636364 0.181818
vt 0.636364 0.272727
vt 0.636364 0.454545
vt 0.545455 0.454545
vt 0.636364 0.545455
vt 0.636364 0.636364
vt 0.545455 0.636364
vt 0.636364 0.727273
vt 0.636364 0.000000
vt 0.727273 0.090909
vt 0.727273 0.181818
vt 0.727273 0.272727
vt 0.727273 0.363636
vt 0.636364 0.363636
vt 0.727273 0.454545
vt 0.727273 0.545455
vt 0.727273 0.727273
vt 0.727273 0.818182
vt 0.636364 0.818182
vt 0.818182 0.000000
vt 0.727273 0.000000
vt 0.818182 0.090909
vt 0.818182 0.272727
vt 0.818182 0.454545
vt 0.818182 0.545455
vt 0.818182 0.636364
vt 0.727273 0.636364
vt 0.818182 0.727273
vt 0.818182 0.818182
vt 0.909091 0.090909
vt 0.818182 0.181818
vt 0.909091 0.272727
vt 0.909091 0.363636
vt 0.818182 0.363636
vt 0.909091 0.454545
vt 0.909091 0.545455
vt 0.909091 0.636364
vt 0.909091 0.818182
vt 0.909091 0.000000
vt 1.000000 0.090909
vt 0.909091 0.181818
vt 1.000000 0.272727
vt 1.000000 0.363636
vt 1.000000 0.545455
vt 1.000000 0.636364
vt 0.909091 0.727273
vt 1.000000 0.818182
vt 1.000000 1.000000
vt 1.000000 0.000000
vt 1.000000 0.181818
vt 1.000000 0.454545
vt 1.000000 0.727273
vn -0.6715 0.6915 0.2661
vn 0.0000 0.0000 1.0000
vn -0.9527 0.0000 0.3039
vn -0.9610 0.0000 0.2764
vn -0.9518 0.1782 0.2497
vn -0.9515 0.0000 0.3075
vn -0.8406 0.4786 0.2535
vn -0.8503 0.0000 0.5264
vn -0.8436 0.4660 0.2670
vn -0.8458 0.0000 0.5335
vn -0.9333 0.2268 0.2785
vn 0.0000 -0.9269 0.3752
vn 0.0000 -0.9243 0.3816
vn 0.0000 -0.9158 0.4017
vn 0.0000 -0.9038 0.4279
vn 0.0000 -0.8944 0.4473
vn 0.0000 -0.9097 0.4152
vn 0.9236 0.0000 0.3833
vn 0.3253 -0.7319 0.5988
vn -0.4696 -0.5308 0.7055
vn 0.0195 -0.3320 0.9431
vn -0.1520 -0.3282 0.9323
vn -0.1032 -0.8214 0.5609
vn 0.0734 -0.8236 0.5624
vn -0.1357 -0.8357 0.5321
vn 0.1091 -0.8385 0.5339
vn 0.4334 -0.7165 0.5467
vn 0.9407 0.2110 0.2656
vn -0.1167 0.4392 0.8908
vn -0.3466 0.4148 0.8413
vn -0.2778 0.6174 0.7359
vn 0.5287 0.1261 0.8394
vn 0.1083 0.1477 0.9831
vn 0.3079 0.6791 0.6663
vn -0.4371 -0.1968 0.8776
vn -0.0578 -0.2184 0.9741
vn -0.1010 -0.3016 0.9481
vn 0.9040 0.2749 0.3274
vn 0.1627 0.3208 0.9330
vn -0.6063 0.2586 0.7520
vn 0.1339 0.3729 0.9182
vn 0.5510 -0.5003 0.6679
vn -0.5864 -0.2115 0.7819
vn 0.3398 -0.2264 0.9128
vn 0.4746 0.6585 0.5840
vn -0.5120 0.6427 0.5700
vn 0.5239 0.4948 0.6933
vn 0.8920 0.0000 0.4521
vn 0.5045 -0.3883 0.7712
vn -0.5449 -0.5606 0.6235
vn 0.7138 0.4398 0.5450
vn 0.2561 0.6581 0.7081
vn -0.7498 -0.4302 0.5026
vn 0.6142 -0.5132 0.5995
vn -0.4936 0.1114 0.8625
vn 0.4100 0.6135 0.6749
vn -0.2228 -0.2327 0.9467
vn 0.9230 0.0000 0.3847
vn 0.1719 -0.5717 0.8023
vn 0.0088 -0.2047 0.9788
vn -0.2306 0.1390 0.9631
vn 0.2446 0.1385 0.9597
vn 0.2001 -0.0374 0.9791
vn 0.1717 -0.0376 0.9844
vn -0.3481 0.4852 0.8021
vn -0.2298 -0.3788 0.8965
vn 0.3297 0.8343 0.4418
vn 0.9501 0.1628 0.2660
vn -0.3062 0.4969 0.8120
vn -0.4302 0.1356 0.8925
vn -0.4858 0.0833 0.8701
vn 0.5936 0.5810 0.5569
vn -0.4516 -0.0180 0.8920
vn -0.7452 -0.4514 0.4908
vn 0.4910 -0.5897 0.6412
vn 0.5107 -0.4374 0.7402
vn -0.5873 -0.6467 0.4868
vn 0.9397 0.1125 0.3231
vn 0.1341 0.1673 0.9767
vn -0.3674 -0.2594 0.8932
vn 0.5104 0.4786 0.7144
vn -0.7111 0.3913 0.5841
vn 0.5903 -0.3038 0.7478
vn -0.4622 -0.0698 0.8840
vn 0.3144 -0.4774 0.8205
vn 0.0229 0.1498 0.9885
vn 0.2026 0.1467 0.9682
vn 0.9340 0.0000 0.3572
vn 0.2311 -0.5610 0.7949
vn 0.0366 -0.3734 0.9269
vn -0.1407 -0.3700 0.9183
vn -0.2721 -0.0444 0.9613
vn 0.4310 0.0859 0.8982
vn -0.6383 -0.5631 0.5249
vn 0.7894 0.3505 0.5040
vn -0.4855 -0.4603 0.7433
vn -0.4892 -0.7590 0.4296
vn 0.9451 0.1530 0.2887
vn -0.7035 0.3329 0.6279
vn 0.6014 0.6513 0.4628
vn -0.6693 -0.5090 0.5412
vn 0.2894 -0.6557 0.6973
vn 0.2869 -0.4100 0.8658
vn -0.1020 -0.1781 0.9787
vn -0.1936 0.2321 0.9532
vn 0.5354 0.3342 0.7756
vn -0.0579 0.3951 0.9168
vn 0.6527 0.7200 0.2356
vn -0.2504 0.9201 0.3011
vn 0.0039 0.9086 0.4177
vn 0.3126 0.9104 0.2708
vn -0.0119 0.9584 0.2851
vn 0.0059 0.9579 0.2870
vn -0.1466 0.9476 0.2840
vn -0.0747 0.9383 0.3377
vn 0.1572 0.9390 0.3060
vn -0.1317 0.9425 0.3071
vn -0.7040 -0.6738 0.2246
vn -0.9567 -0.0949 0.2752
vn -0.9641 -0.0805 0.2529
vn -0.9550 -0.0708 0.2879
vn -0.8849 -0.3721 0.2801
vn -0.8553 -0.4509 0.2552
vn -0.9297 0.0000 0.3684
vn 0.6706 -0.6876 0.2783
vn 0.1688 -0.9354 0.3107
vn -0.2053 -0.9288 0.3085
vn 0.0078 -0.9254 0.3789
vn -0.0617 -0.9237 0.3782
vn -0.0737 -0.9133 0.4006
vn 0.0531 -0.9121 0.4066
vn -0.1033 -0.9085 0.4050
vn 0.0846 -0.9065 0.4138
vn 0.2432 -0.9202 0.3067
vn 0.9133 -0.3152 0.2578
vn -0.1157 -0.4557 0.8826
vn -0.3437 -0.4309 0.8344
vn -0.2888 -0.5756 0.7651
vn 0.3769 -0.7071 0.5983
vn 0.0710 -0.7614 0.6443
vn 0.2176 -0.8549 0.4710
vn -0.2337 -0.8516 0.4692
vn -0.0360 -0.7945 0.6062
vn -0.1002 -0.3243 0.9406
vn 0.9402 0.0000 0.3405
vn 0.1353 0.6164 0.7757
vn -0.5255 0.5468 0.6518
vn 0.1366 0.3213 0.9371
vn 0.6153 0.2557 0.7457
vn -0.4814 0.5968 0.6419
vn 0.2630 0.6569 0.7066
vn 0.4946 0.6204 0.6087
vn -0.6176 0.3817 0.6877
vn 0.5512 0.4049 0.7295
vn 0.4479 0.5749 0.6847
vn -0.6293 0.2924 0.7200
vn 0.7235 -0.4138 0.5525
vn 0.3297 -0.2465 0.9114
vn -0.8075 0.2345 0.5413
vn 0.6850 0.2896 0.6685
vn -0.4856 -0.2105 0.8485
vn 0.4989 -0.2767 0.8213
vn -0.2176 -0.3116 0.9250
vn 0.9062 -0.1902 0.3777
vn 0.2096 0.0008 0.9778
vn 0.0090 0.0008 1.0000
vn -0.1753 -0.6583 0.7321
vn 0.1946 0.6160 0.7634
vn 0.1481 0.6733 0.7244
vn 0.1704 0.1263 0.9772
vn -0.3980 -0.0214 0.9171
vn -0.2483 -0.0225 0.9684
vn 0.4834 0.5888 0.6478
vn 0.9014 -0.3519 0.2523
vn -0.2146 -0.7938 0.5691
vn -0.3654 -0.5402 0.7581
vn -0.4796 -0.1796 0.8589
vn 0.6414 -0.4759 0.6018
vn -0.3691 -0.5765 0.7290
vn -0.5719 0.7288 0.3766
vn 0.3317 0.8381 0.4331
vn 0.5084 0.4457 0.7368
vn -0.7434 -0.2603 0.6162
vn 0.9457 0.0000 0.3252
vn 0.1345 0.1488 0.9797
vn -0.3789 0.0882 0.9212
vn 0.4514 -0.6302 0.6318
vn -0.6529 -0.5349 0.5363
vn 0.4794 0.6336 0.6073
vn -0.4633 -0.0179 0.8860
vn 0.3133 -0.4831 0.8176
vn 0.0231 -0.0297 0.9993
vn 0.2047 -0.0291 0.9784
vn 0.2648 0.3170 0.9107
vn 0.0389 0.1687 0.9849
vn -0.1455 -0.2759 0.9501
vn -0.2537 -0.3641 0.8962
vn 0.4315 -0.0711 0.8993
vn -0.7011 0.4198 0.5764
vn 0.7847 0.3649 0.5010
vn -0.4916 -0.4379 0.7527
vn -0.4927 0.7550 0.4327
vn 0.9367 -0.2019 0.2861
vn -0.6654 0.4523 0.5939
vn 0.7188 0.4212 0.5531
vn -0.7151 0.3928 0.5782
vn 0.3247 0.5315 0.7824
vn 0.3142 -0.0438 0.9483
vn -0.1032 0.0947 0.9901
vn -0.1372 -0.7246 0.6754
vn 0.4931 0.4967 0.7143
vn -0.0536 -0.5257 0.8490
vn 0.9406 0.0000 0.3395
vn -0.6293 0.1779 0.7565
vn 0.0092 0.2290 0.9734
vn 0.5558 0.6776 0.4815
vn -0.0378 -0.4277 0.9031
vn 0.0202 -0.1790 0.9836
vn -0.4483 0.2115 0.8685
vn -0.2093 0.2472 0.9461
vn 0.4453 0.2264 0.8663
vn -0.3154 0.5992 0.7358
vn 0.0000 0.9079 0.4191
vn 0.0000 0.9086 0.4177
vn 0.0000 0.9574 0.2887
vn 0.0000 0.9409 0.3386
vn 0.0000 0.9310 0.3649
vn 0.0000 0.9333 0.3592
usemtl None
s off
f 34/1/1 35/2/1 144/3/1
f 5/4/2 44/5/2 3/6/2
f 54/7/3 43/8/3 44/5/3
f 64/9/4 42/10/4 43/8/4
f 84/11/5 42/10/5 74/12/5
f 84/11/6 40/13/6 41/14/6
f 104/15/7 40/13/7 94/16/7
f 104/15/8 38/17/8 39/18/8
f 124/19/9 38/17/9 114/20/9
f 124/19/10 36/21/10 37/22/10
f 144/3/11 36/21/11 134/23/11
f 15/24/2 14/25/2 1/26/2
f 45/27/12 13/28/12 14/25/12
f 13/28/13 47/29/13 12/30/13
f 47/29/13 11/31/13 12/30/13
f 11/31/14 49/32/14 10/33/14
f 10/33/15 50/34/15 9/35/15
f 50/34/15 8/36/15 9/35/15
f 8/36/16 52/37/16 7/38/16
f 52/37/16 6/39/16 7/38/16
f 53/40/17 5/4/17 6/39/17
f 16/41/18 45/27/18 15/24/18
f 55/42/19 46/43/19 45/27/19
f 46/43/20 57/44/20 47/29/20
f 47/29/21 58/45/21 48/46/21
f 58/45/22 49/32/22 48/46/22
f 49/32/23 60/47/23 50/34/23
f 60/47/24 51/48/24 50/34/24
f 51/48/25 62/49/25 52/37/25
f 62/49/26 53/40/26 52/37/26
f 63/50/27 54/7/27 53/40/27
f 16/41/28 65/51/28 55/42/28
f 55/42/29 66/52/29 56/53/29
f 66/52/30 57/44/30 56/53/30
f 67/54/31 58/45/31 57/44/31
f 58/45/32 69/55/32 59/56/32
f 69/55/33 60/47/33 59/56/33
f 60/47/34 71/57/34 61/58/34
f 61/58/35 72/59/35 62/49/35
f 72/59/36 63/50/36 62/49/36
f 63/50/37 74/12/37 64/9/37
f 17/60/38 75/61/38 65/51/38
f 65/51/39 76/62/39 66/52/39
f 76/62/40 67/54/40 66/52/40
f 77/63/41 68/64/41 67/54/41
f 78/65/42 69/55/42 68/64/42
f 79/66/43 70/67/43 69/55/43
f 70/67/44 81/68/44 71/57/44
f 71/57/45 82/69/45 72/59/45
f 82/69/46 73/70/46 72/59/46
f 73/70/47 84/11/47 74/12/47
f 19/71/48 75/61/48 18/72/48
f 85/73/49 76/62/49 75/61/49
f 76/62/50 87/74/50 77/63/50
f 77/63/51 88/75/51 78/65/51
f 78/65/52 89/76/52 79/66/52
f 79/66/53 90/77/53 80/78/53
f 90/77/54 81/68/54 80/78/54
f 91/79/55 82/69/55 81/68/55
f 82/69/56 93/80/56 83/81/56
f 83/81/57 94/16/57 84/11/57
f 20/82/58 85/73/58 19/71/58
f 85/73/59 96/83/59 86/84/59
f 86/84/60 97/85/60 87/74/60
f 87/74/61 98/86/61 88/75/61
f 98/86/62 89/76/62 88/75/62
f 89/76/63 100/87/63 90/77/63
f 100/87/64 91/79/64 90/77/64
f 91/79/65 102/88/65 92/89/65
f 92/89/66 103/90/66 93/80/66
f 93/80/67 104/15/67 94/16/67
f 20/82/68 105/91/68 95/92/68
f 105/91/69 96/83/69 95/92/69
f 106/93/70 97/85/70 96/83/70
f 107/94/71 98/86/71 97/85/71
f 98/86/72 109/95/72 99/96/72
f 99/96/73 110/97/73 100/87/73
f 100/87/74 111/98/74 101/99/74
f 111/98/75 102/88/75 101/99/75
f 112/100/76 103/90/76 102/88/76
f 103/90/77 114/20/77 104/15/77
f 21/101/78 115/102/78 105/91/78
f 105/91/79 116/103/79 106/93/79
f 106/93/80 117/104/80 107/94/80
f 107/94/81 118/105/81 108/106/81
f 118/105/82 109/95/82 108/106/82
f 119/107/83 110/97/83 109/95/83
f 120/108/84 111/98/84 110/97/84
f 111/98/85 122/109/85 112/100/85
f 112/100/86 123/110/86 113/111/86
f 123/110/87 114/20/87 113/111/87
f 23/112/88 115/102/88 22/113/88
f 125/114/89 116/103/89 115/102/89
f 116/103/90 127/115/90 117/104/90
f 127/115/91 118/105/91 117/104/91
f 118/105/92 129/116/92 119/107/92
f 119/107/93 130/117/93 120/108/93
f 120/108/94 131/118/94 121/119/94
f 121/119/95 132/120/95 122/109/95
f 122/109/96 133/121/96 123/110/96
f 123/110/97 134/23/97 124/19/97
f 23/112/98 135/122/98 125/114/98
f 135/122/99 126/123/99 125/114/99
f 126/123/100 137/124/100 127/115/100
f 127/115/101 138/125/101 128/126/101
f 138/125/102 129/116/102 128/126/102
f 139/127/103 130/117/103 129/116/103
f 140/128/104 131/118/104 130/117/104
f 141/129/105 132/120/105 131/118/105
f 132/120/106 143/130/106 133/121/106
f 143/130/107 134/23/107 133/121/107
f 24/131/108 25/132/108 135/122/108
f 25/132/109 136/133/109 135/122/109
f 136/133/110 27/134/110 137/124/110
f 137/124/111 28/135/111 138/125/111
f 28/135/112 139/127/112 138/125/112
f 139/127/113 30/136/113 140/128/113
f 30/136/114 141/129/114 140/128/114
f 31/137/115 142/138/115 141/129/115
f 142/138/116 33/139/116 143/130/116
f 33/139/117 144/3/117 143/130/117
f 34/1/2 4/140/2 35/2/2
f 5/4/118 54/7/118 44/5/118
f 54/7/119 64/9/119 43/8/119
f 64/9/120 74/12/120 42/10/120
f 84/11/6 41/14/6 42/10/6
f 84/11/121 94/16/121 40/13/121
f 104/15/8 39/18/8 40/13/8
f 104/15/122 114/20/122 38/17/122
f 124/19/10 37/22/10 38/17/10
f 124/19/123 134/23/123 36/21/123
f 144/3/124 35/2/124 36/21/124
f 15/24/125 45/27/125 14/25/125
f 45/27/126 46/43/126 13/28/126
f 13/28/127 46/43/127 47/29/127
f 47/29/128 48/46/128 11/31/128
f 11/31/129 48/46/129 49/32/129
f 10/33/130 49/32/130 50/34/130
f 50/34/131 51/48/131 8/36/131
f 8/36/132 51/48/132 52/37/132
f 52/37/133 53/40/133 6/39/133
f 53/40/134 54/7/134 5/4/134
f 16/41/135 55/42/135 45/27/135
f 55/42/136 56/53/136 46/43/136
f 46/43/137 56/53/137 57/44/137
f 47/29/138 57/44/138 58/45/138
f 58/45/139 59/56/139 49/32/139
f 49/32/140 59/56/140 60/47/140
f 60/47/141 61/58/141 51/48/141
f 51/48/142 61/58/142 62/49/142
f 62/49/143 63/50/143 53/40/143
f 63/50/144 64/9/144 54/7/144
f 16/41/145 17/60/145 65/51/145
f 55/42/146 65/51/146 66/52/146
f 66/52/147 67/54/147 57/44/147
f 67/54/148 68/64/148 58/45/148
f 58/45/149 68/64/149 69/55/149
f 69/55/150 70/67/150 60/47/150
f 60/47/151 70/67/151 71/57/151
f 61/58/152 71/57/152 72/59/152
f 72/59/153 73/70/153 63/50/153
f 63/50/154 73/70/154 74/12/154
f 17/60/48 18/72/48 75/61/48
f 65/51/155 75/61/155 76/62/155
f 76/62/156 77/63/156 67/54/156
f 77/63/157 78/65/157 68/64/157
f 78/65/158 79/66/158 69/55/158
f 79/66/159 80/78/159 70/67/159
f 70/67/160 80/78/160 81/68/160
f 71/57/161 81/68/161 82/69/161
f 82/69/162 83/81/162 73/70/162
f 73/70/163 83/81/163 84/11/163
f 19/71/164 85/73/164 75/61/164
f 85/73/165 86/84/165 76/62/165
f 76/62/166 86/84/166 87/74/166
f 77/63/167 87/74/167 88/75/167
f 78/65/168 88/75/168 89/76/168
f 79/66/169 89/76/169 90/77/169
f 90/77/170 91/79/170 81/68/170
f 91/79/171 92/89/171 82/69/171
f 82/69/172 92/89/172 93/80/172
f 83/81/173 93/80/173 94/16/173
f 20/82/174 95/92/174 85/73/174
f 85/73/175 95/92/175 96/83/175
f 86/84/176 96/83/176 97/85/176
f 87/74/177 97/85/177 98/86/177
f 98/86/178 99/96/178 89/76/178
f 89/76/179 99/96/179 100/87/179
f 100/87/180 101/99/180 91/79/180
f 91/79/181 101/99/181 102/88/181
f 92/89/182 102/88/182 103/90/182
f 93/80/183 103/90/183 104/15/183
f 20/82/184 21/101/184 105/91/184
f 105/91/185 106/93/185 96/83/185
f 106/93/186 107/94/186 97/85/186
f 107/94/187 108/106/187 98/86/187
f 98/86/188 108/106/188 109/95/188
f 99/96/189 109/95/189 110/97/189
f 100/87/190 110/97/190 111/98/190
f 111/98/191 112/100/191 102/88/191
f 112/100/192 113/111/192 103/90/192
f 103/90/193 113/111/193 114/20/193
f 21/101/88 22/113/88 115/102/88
f 105/91/194 115/102/194 116/103/194
f 106/93/195 116/103/195 117/104/195
f 107/94/196 117/104/196 118/105/196
f 118/105/197 119/107/197 109/95/197
f 119/107/198 120/108/198 110/97/198
f 120/108/199 121/119/199 111/98/199
f 111/98/200 121/119/200 122/109/200
f 112/100/201 122/109/201 123/110/201
f 123/110/202 124/19/202 114/20/202
f 23/112/203 125/114/203 115/102/203
f 125/114/204 126/123/204 116/103/204
f 116/103/205 126/123/205 127/115/205
f 127/115/206 128/126/206 118/105/206
f 118/105/207 128/126/207 129/116/207
f 119/107/208 129/116/208 130/117/208
f 120/108/209 130/117/209 131/118/209
f 121/119/210 131/118/210 132/120/210
f 122/109/211 132/120/211 133/121/211
f 123/110/212 133/121/212 134/23/212
f 23/112/213 24/131/213 135/122/213
f 135/122/214 136/133/214 126/123/214
f 126/123/215 136/133/215 137/124/215
f 127/115/216 137/124/216 138/125/216
f 138/125/217 139/127/217 129/116/217
f 139/127/218 140/128/218 130/117/218
f 140/128/219 141/129/219 131/118/219
f 141/129/220 142/138/220 132/120/220
f 132/120/221 142/138/221 143/130/221
f 143/130/222 144/3/222 134/23/222
f 24/131/2 2/141/2 25/132/2
f 25/132/223 26/142/223 136/133/223
f 136/133/223 26/142/223 27/134/223
f 137/124/224 27/134/224 28/135/224
f 28/135/225 29/143/225 139/127/225
f 139/127/225 29/143/225 30/136/225
f 30/136/226 31/137/226 141/129/226
f 31/137/227 32/144/227 142/138/227
f 142/138/227 32/144/227 33/139/227
f 33/139/228 34/1/228 144/3/228
